<svg xmlns="http://www.w3.org/2000/svg" xmlns:xlink="http://www.w3.org/1999/xlink" width="45" height="23" viewBox="0 0 45 23">
  <g transform="translate(-502 -836)">
    <path id="acfma" d="M542.09 844.09v8.4a2.8 2.8 0 0 1-2.82 2.77h-23.14l16.18-15.95h6.96a2.8 2.8 0 0 1 2.82 2.77zm-35.87 11.17a2.8 2.8 0 0 1-2.81-2.78v-10.4a2.8 2.8 0 0 1 2.8-2.77h24.1l-16.17 15.95zm37.9-12.49h-.64v-.69a4.2 4.2 0 0 0-4.21-4.16h-5.56l.96-.94-1-.98-1.95 1.92h-25.5a4.2 4.2 0 0 0-4.22 4.16v10.4a4.2 4.2 0 0 0 4.22 4.17h6.52l-1.4 1.37 1 .98 2.39-2.35h24.54a4.2 4.2 0 0 0 4.21-4.17l.27.02.36-.01h.43c1.4 0 2.46-.9 2.46-2.09v-5.54c0-1.2-1.06-2.08-2.46-2.08l-.43-.01z"/>
  </g>
</svg>