<?xml version="1.0" encoding="utf-8"?>
<!-- Generator: Adobe Illustrator 22.0.1, SVG Export Plug-In . SVG Version: 6.00 Build 0)  -->
<svg version="1.1" id="Слой_1" xmlns="http://www.w3.org/2000/svg" xmlns:xlink="http://www.w3.org/1999/xlink" x="0px" y="0px"
	 viewBox="0 0 45 23" style="enable-background:new 0 0 45 23;" xml:space="preserve">
<path id="acfma" d="M40.1,8.1v8.4c0,1.5-1.3,2.8-2.8,2.8H14.1l16.2-16h7c1.5,0,2.8,1.2,2.8,2.8V8.1z M4.2,19.3
	c-1.5,0-2.8-1.2-2.8-2.8V6.1c0-1.5,1.3-2.8,2.8-2.8l26.1,0l-16.2,16L4.2,19.3z M42.1,6.8h-0.6V6.1c0-2.3-1.9-4.2-4.2-4.2h-5.6l0,0
	h-2l0,0H4.2C1.9,1.9,0,3.8,0,6.1v10.4c0,2.3,1.9,4.2,4.2,4.2h6.5l0,0h2l0,0h24.5c2.3,0,4.2-1.9,4.2-4.2l0.3,0l0.4,0h0.4
	c1.4,0,2.5-0.9,2.5-2.1V8.9c0-1.2-1.1-2.1-2.5-2.1L42.1,6.8L42.1,6.8z"/>
</svg>
