<svg xmlns="http://www.w3.org/2000/svg" xmlns:xlink="http://www.w3.org/1999/xlink" width="36" height="41" viewBox="0 0 36 41">
<path transform="translate(-576 -2958)" d="M608.879 2962.632c1.71 0 3.121 1.4 3.121 3.143v19.925c0 1.7-1.411 3.102-3.121 3.102h-6.756l3.935 7.265a1.463 1.463 0 0 1-.598 1.997c-.214.126-.428.17-.685.17-.556 0-1.069-.257-1.326-.766l-4.703-8.666h-3.25l.002 8.711c0 .807-.685 1.487-1.496 1.487-.812 0-1.497-.68-1.497-1.487v-8.753h-3.25l-4.703 8.666c-.257.468-.813.765-1.326.765-.213 0-.47-.041-.684-.169a1.464 1.464 0 0 1-.598-1.996l3.933-7.266h-6.756c-1.71 0-3.121-1.402-3.121-3.102v-19.924c0-1.7 1.411-3.102 3.121-3.102l13.383-.002v-3.143c0-.807.684-1.487 1.496-1.487.812 0 1.496.68 1.496 1.487v3.145h13.383zM579 2984a1 1 0 0 0 1 1h28a1 1 0 0 0 1-1v-17a1 1 0 0 0-1-1h-28a1 1 0 0 0-1 1z"/></svg>