<svg xmlns="http://www.w3.org/2000/svg" xmlns:xlink="http://www.w3.org/1999/xlink" width="47" height="46" viewBox="0 0 47 46"><path id="1dq2a" transform="translate(-318 -2956)" d="M337.398 2983.015c-2.543-2.455-6.578-2.455-9.075 0-2.497 2.501-2.497 6.47 0 8.924 2.543 2.456 6.578 2.456 9.075 0 2.499-2.455 2.499-6.42 0-8.924zm6.579 7.368c-.29 1.038-.72 1.983-1.25 2.927l1.632 2.22c.336.377.24.991-.095 1.322l-1.921 1.889c-.336.33-.914.378-1.345.094l-2.257-1.605c-.911.52-1.872.944-2.881 1.18l-.48 2.74c-.096.472-.527.85-1.056.85h-2.784c-.527 0-.96-.33-1.056-.85l-.48-2.692c-1.008-.236-2.017-.66-2.977-1.18l-2.306 1.605c-.384.33-1.009.236-1.345-.094l-1.92-1.89c-.336-.33-.385-.898-.096-1.322l1.54-2.177c-.578-.898-.96-1.888-1.25-2.88l-2.785-.473a1.069 1.069 0 0 1-.865-1.039v-2.737c0-.518.336-.944.865-1.039l2.737-.424c.24-.99.671-1.983 1.2-2.927l-1.632-2.267c-.336-.378-.24-.993.096-1.323l1.92-1.889c.336-.33.914-.378 1.346-.094l2.256 1.559a9.389 9.389 0 0 1 3.026-1.275l.48-2.69c.096-.473.527-.851 1.056-.851h2.784c.527 0 .96.33 1.056.85l.48 2.691c1.057.284 2.017.709 2.977 1.229l2.304-1.65c.385-.283.96-.235 1.345.095l1.92 1.889c.337.33.385.898.096 1.322l-1.631 2.22c.577.944 1.009 1.888 1.249 2.927l2.737.472c.48.094.864.518.864 1.038v2.738c0 .518-.335.944-.864 1.038zm13.35-24.51c-1.01-2.267-3.697-3.353-6.003-2.36-2.305.992-3.361 3.635-2.4 5.902 1.009 2.267 3.697 3.306 6.002 2.361a4.446 4.446 0 0 0 2.401-5.903zm7.107-2.927l.48 1.04c.194.427.05.851-.335 1.087l-1.97 1.229c.096.898.145 1.795 0 2.645l1.97 1.228c.336.189.48.66.336 1.039l-.863 2.077c-.145.378-.578.614-1.01.52l-2.256-.472a9.98 9.98 0 0 1-1.872 1.889l.529 2.219a.86.86 0 0 1-.53.992l-2.111.849c-.434.19-.865.048-1.105-.33l-1.25-1.937a9.93 9.93 0 0 1-2.64.048l-1.25 1.983c-.191.33-.672.472-1.056.33l-2.112-.849a.862.862 0 0 1-.53-.992l.48-2.22a9.993 9.993 0 0 1-1.92-1.84l-2.305.52c-.434.094-.865-.142-1.01-.52l-.863-2.077c-.193-.426-.048-.85.336-1.087l1.97-1.228a9.797 9.797 0 0 1-.049-2.645l-2.016-1.229c-.336-.188-.48-.66-.336-1.038l.863-2.077c.144-.378.577-.615 1.009-.52l2.257.52a9.98 9.98 0 0 1 1.872-1.89l-.53-2.266a.86.86 0 0 1 .53-.993l2.112-.848c.433-.19.865-.048 1.105.33l1.249 1.937a7.585 7.585 0 0 1 2.737-.048l1.25-1.937c.19-.33.67-.472 1.055-.33l2.112.848a.862.862 0 0 1 .53.993l-.48 2.219a9.994 9.994 0 0 1 1.92 1.84l2.257-.52a.907.907 0 0 1 1.009.473z"/></svg>