<svg xmlns="http://www.w3.org/2000/svg" xmlns:xlink="http://www.w3.org/1999/xlink" width="198" height="35" viewBox="0 0 198 35"><defs><path id="bgu9a" d="M1098.69 1711.571c0 2.03 1.32 3.694 3.486 3.694 2.07 0 3.462-1.596 3.462-3.694 0-2.097-1.393-3.693-3.462-3.693-2.166 0-3.486 1.663-3.486 3.693zm9.32 5.764h-2.502v-1.398a4.354 4.354 0 0 1-3.63 1.692c-3.236 0-5.762-2.535-5.762-6.058 0-3.523 2.54-6.058 5.762-6.058a4.354 4.354 0 0 1 3.616 1.677v-1.402h2.501v5.783zm87.928-2.07c2.066 0 3.457-1.596 3.457-3.694 0-2.097-1.39-3.693-3.457-3.693-2.163 0-3.481 1.663-3.481 3.693 0 2.025 1.318 3.694 3.48 3.694zm8.614 1.514v.187h.168a.16.16 0 0 0 .091 0 .08.08 0 0 0 .034-.069.08.08 0 0 0-.034-.068.16.16 0 0 0-.09 0zm.168-.128a.304.304 0 0 1 .202.059.197.197 0 0 1 .072.161.187.187 0 0 1-.058.142.266.266 0 0 1-.158.068l.22.26h-.172l-.207-.26h-.067v.26h-.144v-.685zm.178.881a.583.583 0 0 0 0-1.059.547.547 0 0 0-.221-.043.566.566 0 0 0-.226.043.582.582 0 0 0-.182.938.571.571 0 0 0 .415.165.537.537 0 0 0 .214-.044zm.067-1.207a.753.753 0 0 1 .394.395.738.738 0 0 1-.159.81.768.768 0 0 1-.235.161.744.744 0 0 1-.98-.971.736.736 0 0 1 .701-.454h-.003c.097 0 .193.02.282.059zm-3.212 1.005h-2.502v-1.397a4.354 4.354 0 0 1-3.63 1.691c-3.236 0-5.762-2.534-5.762-6.056 0-3.522 2.54-6.057 5.762-6.057a4.354 4.354 0 0 1 3.63 1.691v-6.032h2.502zm-62.734-9.573h.005zm.002 0c-1.78.001-2.787 1.137-3.051 2.808h5.959c-.264-1.792-1.296-2.807-2.908-2.808zm.031-2.248c3.222 0 5.46 2.462 5.46 6.057 0 .338-.024.651-.048.964h-8.537c.36 2.077 1.824 2.824 3.438 2.824a5.466 5.466 0 0 0 3.36-1.205l1.225 1.86a6.97 6.97 0 0 1-4.715 1.62c-3.438 0-5.892-2.39-5.892-6.058 0-3.595 2.363-6.058 5.724-6.058zm33.684 9.756c2.07 0 3.462-1.596 3.462-3.694 0-2.097-1.392-3.693-3.462-3.693-2.165 0-3.486 1.663-3.486 3.693 0 2.025 1.32 3.694 3.486 3.694zm5.83 2.056h-2.504v-1.398a4.359 4.359 0 0 1-3.633 1.692c-3.24 0-5.767-2.535-5.767-6.058 0-3.523 2.542-6.058 5.767-6.058a4.359 4.359 0 0 1 3.633 1.691v-1.402h2.504zm-23.433-5.76c0-3.498 2.43-6.057 6.132-6.057a6.007 6.007 0 0 1 4.134 1.378l-1.2 2.029a5.04 5.04 0 0 0-3.006-1.036c-1.993.024-3.462 1.475-3.462 3.691 0 2.217 1.464 3.692 3.462 3.692a5.04 5.04 0 0 0 3.006-1.036l1.2 2.029a6.007 6.007 0 0 1-4.134 1.378c-3.702 0-6.132-2.559-6.132-6.058zm33.996-5.734l-.768 2.366a4.063 4.063 0 0 0-1.566-.29c-1.637 0-2.453 1.042-2.453 2.97v6.467h-2.502v-11.537h2.478v1.402a3.387 3.387 0 0 1 3.03-1.692c.607.002 1.21.108 1.781.314zm-69.841 2.925a7.401 7.401 0 0 0-3.586-.988c-1.374 0-2.191.506-2.191 1.35 0 .77.87.987 1.951 1.132l1.178.169c2.499.361 4.018 1.421 4.018 3.45 0 2.193-1.928 3.764-5.249 3.764a8.285 8.285 0 0 1-4.984-1.499l1.139-1.952a6.122 6.122 0 0 0 3.845 1.205c1.711 0 2.624-.51 2.624-1.402 0-.65-.653-1.012-2.023-1.205l-1.178-.169c-2.576-.361-3.97-1.518-3.97-3.402 0-2.29 1.894-3.692 4.807-3.692a8.585 8.585 0 0 1 4.695 1.205zm33.32-3.239c.607.002 1.21.108 1.781.314l-.768 2.366a4.063 4.063 0 0 0-1.566-.29c-1.637 0-2.453 1.042-2.453 2.97v6.467h-2.502v-11.537h2.478v1.402a3.387 3.387 0 0 1 3.03-1.692zm-21.34 2.585h-4.085v5.214c0 1.156.413 1.927 1.661 1.927a4.607 4.607 0 0 0 2.214-.65l.72 2.149a5.862 5.862 0 0 1-3.126.89c-2.958 0-3.99-1.594-3.99-4.273v-5.257h-2.334v-2.293h2.334v-3.499h2.526v3.499h4.086zm-39.896 9.242v-6.42c0-1.956-.864-3.04-2.526-3.04-1.661 0-2.814 1.06-2.814 3.065v6.395h-2.51v-6.42c0-1.956-.793-3.04-2.503-3.04-1.709 0-2.813 1.06-2.813 3.065v6.395h-2.526v-11.547h2.502v1.446a3.799 3.799 0 0 1 3.36-1.716 4.217 4.217 0 0 1 3.799 2.053 4.446 4.446 0 0 1 4.038-2.053c2.79.024 4.523 1.86 4.523 4.588v7.23z"/><path id="bgu9b" d="M1028.63 1725.13v-27.28h15.13v27.28z"/><path id="bgu9c" d="M1029.595 1711.503a17.338 17.338 0 0 1 6.602-13.635c-7.087-5.59-17.265-4.775-23.38 1.87-6.116 6.645-6.116 16.89 0 23.535 6.115 6.646 16.293 7.46 23.38 1.87a17.338 17.338 0 0 1-6.602-13.64z"/><path id="bgu9d" d="M1064.17 1711.5c0 6.641-3.78 12.7-9.732 15.601a17.238 17.238 0 0 1-18.238-1.966 17.367 17.367 0 0 0 6.605-13.637c0-5.322-2.435-10.35-6.605-13.638a17.238 17.238 0 0 1 18.24-1.965 17.35 17.35 0 0 1 9.73 15.605z"/><path id="bgu9e" d="M1063.615 1722.563v-.993h-.15l-.203.71-.203-.71h-.179v.993h.102v-.745l.189.646h.13l.189-.646v.752zm-1.105 0v-.823h.228v-.163h-.568v.17h.228v.823z"/></defs><g><g transform="translate(-1008 -1694)"><g/><g><use fill="#fff" xlink:href="#bgu9a"/></g><g><g><use fill="#ff5f00" xlink:href="#bgu9b"/></g><g><use fill="#eb001b" xlink:href="#bgu9c"/></g><g><use fill="#f79e1b" xlink:href="#bgu9d"/></g><g><use fill="#f79e1b" xlink:href="#bgu9e"/></g></g></g></g></svg>