<?xml version="1.0" encoding="UTF-8"?><!DOCTYPE svg PUBLIC "-//W3C//DTD SVG 1.1//EN" "http://www.w3.org/Graphics/SVG/1.1/DTD/svg11.dtd"><svg xmlns="http://www.w3.org/2000/svg" xmlns:xlink="http://www.w3.org/1999/xlink"><defs>
        <path id="a" d="M693 2463.501c-.016-.3-.123-.539-.266-.687l-9-9.504a1.006 1.006 0 0 0-1.414-.039c-.38.36-.398 1.034-.039 1.415l7.39 7.815H666a1 1 0 1 0 0 2h23.672l-7.39 7.816c-.36.381-.329 1.041.038 1.415.381.384 1.055.341 1.414-.04l9-9.503c.239-.242.25-.45.266-.688z"/>
    </defs><symbol id="icon-arrow" viewBox="0 0 22 21">
    
    <use xlink:href="#a" transform="rotate(45 3306.033 431.153)"/>
</symbol><symbol id="icon-battery" viewBox="0 0 45 23">
    <path d="M40.09 8.09v8.4a2.8 2.8 0 0 1-2.82 2.77H14.13L30.31 3.31h6.96a2.8 2.8 0 0 1 2.82 2.77zM4.22 19.26a2.8 2.8 0 0 1-2.81-2.78V6.08a2.8 2.8 0 0 1 2.8-2.77h24.1L12.14 19.26zm37.9-12.49h-.64v-.69a4.2 4.2 0 0 0-4.21-4.16h-5.56l.96-.94-1-.98-1.95 1.92H4.22A4.2 4.2 0 0 0 0 6.08v10.4a4.2 4.2 0 0 0 4.22 4.17h6.52l-1.4 1.37 1 .98 2.39-2.35h24.54a4.2 4.2 0 0 0 4.21-4.17l.27.02.36-.01h.43c1.4 0 2.46-.9 2.46-2.09V8.86c0-1.2-1.06-2.08-2.46-2.08l-.43-.01z"/>
</symbol><symbol id="icon-battery_full" viewBox="0 0 45 23">
    <path d="M40.1 8.1v8.4c0 1.5-1.3 2.8-2.8 2.8H14.1l16.2-16h7c1.5 0 2.8 1.2 2.8 2.8v2zM4.2 19.3c-1.5 0-2.8-1.2-2.8-2.8V6.1c0-1.5 1.3-2.8 2.8-2.8h26.1l-16.2 16H4.2zM42.1 6.8h-.6v-.7c0-2.3-1.9-4.2-4.2-4.2H4.2C1.9 1.9 0 3.8 0 6.1v10.4c0 2.3 1.9 4.2 4.2 4.2h33c2.3 0 4.2-1.9 4.2-4.2h1.1c1.4 0 2.5-.9 2.5-2.1V8.9c0-1.2-1.1-2.1-2.5-2.1h-.4z"/>
</symbol><symbol id="icon-customers" viewBox="0 0 36 41">
    <path d="M32.879 4.632c1.71 0 3.121 1.4 3.121 3.143V27.7c0 1.7-1.411 3.102-3.121 3.102h-6.756l3.935 7.265a1.463 1.463 0 0 1-.598 1.997c-.214.126-.428.17-.685.17-.556 0-1.069-.257-1.326-.766l-4.703-8.666h-3.25l.002 8.711c0 .807-.685 1.487-1.496 1.487-.812 0-1.497-.68-1.497-1.487V30.76h-3.25l-4.703 8.666c-.257.468-.813.765-1.326.765-.213 0-.47-.041-.684-.169a1.464 1.464 0 0 1-.598-1.996l3.933-7.266H3.121C1.411 30.76 0 29.358 0 27.658V7.734c0-1.7 1.411-3.102 3.121-3.102l13.383-.002V1.487C16.504.68 17.188 0 18 0c.812 0 1.496.68 1.496 1.487v3.145h13.383zM3 26a1 1 0 0 0 1 1h28a1 1 0 0 0 1-1V9a1 1 0 0 0-1-1H4a1 1 0 0 0-1 1z"/>
</symbol><symbol id="icon-facebook" viewBox="0 0 10 19">
    <title>
        facebook
    </title>
    <path d="M9.766.157v2.946H8.014c-.64 0-1.071.134-1.295.402-.223.268-.335.67-.335 1.205v2.11h3.27l-.435 3.303H6.384v8.471H2.97v-8.47H.123V6.82H2.97V4.387c0-1.384.387-2.457 1.161-3.22C4.904.404 5.934.023 7.222.023c1.093 0 1.941.045 2.544.134z" fill-rule="evenodd"/>
</symbol><symbol id="icon-regulatory" viewBox="0 0 47 46">
    <path d="M19.398 27.015c-2.543-2.455-6.578-2.455-9.075 0-2.497 2.501-2.497 6.47 0 8.924 2.543 2.456 6.578 2.456 9.075 0 2.499-2.455 2.499-6.42 0-8.924zm6.579 7.368c-.29 1.038-.72 1.983-1.25 2.927l1.632 2.22c.336.377.24.991-.095 1.322l-1.921 1.889c-.336.33-.914.378-1.345.094l-2.257-1.605c-.911.52-1.872.944-2.881 1.18l-.48 2.74c-.096.472-.527.85-1.056.85H13.54c-.527 0-.96-.33-1.056-.85l-.48-2.692c-1.008-.236-2.017-.66-2.977-1.18l-2.306 1.605c-.384.33-1.009.236-1.345-.094l-1.92-1.89c-.336-.33-.385-.898-.096-1.322L4.9 37.4c-.578-.898-.96-1.888-1.25-2.88l-2.785-.473A1.069 1.069 0 0 1 0 33.008v-2.737c0-.518.336-.944.865-1.039l2.737-.424c.24-.99.671-1.983 1.2-2.927L3.17 23.614c-.336-.378-.24-.993.096-1.323l1.92-1.889c.336-.33.914-.378 1.346-.094l2.256 1.559a9.389 9.389 0 0 1 3.026-1.275l.48-2.69a1.078 1.078 0 0 1 1.056-.851h2.784c.527 0 .96.33 1.056.85l.48 2.691c1.057.284 2.017.709 2.977 1.229l2.304-1.65c.385-.283.96-.235 1.345.095l1.92 1.889c.337.33.385.898.096 1.322l-1.631 2.22c.577.944 1.009 1.888 1.249 2.927l2.737.472c.48.094.864.518.864 1.038v2.738c0 .518-.335.944-.864 1.038zm13.35-24.51c-1.01-2.267-3.697-3.353-6.003-2.36-2.305.992-3.361 3.635-2.4 5.902 1.009 2.267 3.697 3.306 6.002 2.361a4.446 4.446 0 0 0 2.401-5.903zm7.107-2.927l.48 1.04c.194.427.05.851-.335 1.087l-1.97 1.229c.096.898.145 1.795 0 2.645l1.97 1.228c.336.189.48.66.336 1.039l-.863 2.077c-.145.378-.578.614-1.01.52l-2.256-.472a9.98 9.98 0 0 1-1.872 1.889l.529 2.219a.86.86 0 0 1-.53.992l-2.111.849c-.434.19-.865.048-1.105-.33l-1.25-1.937a9.93 9.93 0 0 1-2.64.048l-1.25 1.983c-.191.33-.672.472-1.056.33l-2.112-.849a.862.862 0 0 1-.53-.992l.48-2.22a9.993 9.993 0 0 1-1.92-1.84l-2.305.52c-.434.094-.865-.142-1.01-.52l-.863-2.077c-.193-.426-.048-.85.336-1.087l1.97-1.228a9.797 9.797 0 0 1-.049-2.645l-2.016-1.229c-.336-.188-.48-.66-.336-1.038l.863-2.077c.144-.378.577-.615 1.009-.52l2.257.52a9.98 9.98 0 0 1 1.872-1.89l-.53-2.266a.86.86 0 0 1 .53-.993l2.112-.848c.433-.19.865-.048 1.105.33l1.249 1.937a7.585 7.585 0 0 1 2.737-.048L37.6.385c.19-.33.67-.472 1.055-.33l2.112.848a.862.862 0 0 1 .53.993l-.48 2.219a9.994 9.994 0 0 1 1.92 1.84l2.257-.52a.907.907 0 0 1 1.009.473z"/>
</symbol><symbol id="icon-shield" viewBox="0 0 38.7 45">
    <path class="st0" d="M19.7 41.2c-.2.1-.5.1-.7 0C5.7 34.4 3.3 20 3 12.1c0-.3.2-.6.4-.7L19 3.9c.2-.1.4-.1.6 0l15.6 7.5c.3.1.4.4.4.7-.2 7.9-2.7 22.3-15.9 29.1zM38.3 9.1L19.7.1c-.2-.1-.4-.1-.6 0L.5 9.1c-.3.1-.4.4-.4.7C.1 26.7 7 39.6 19.1 45c.1 0 .2.1.3.1.1 0 .2 0 .3-.1 12.1-5.4 19-18.2 19-35.2 0-.3-.2-.6-.4-.7z"/>
</symbol></svg>