<?xml version="1.0" encoding="UTF-8"?><!DOCTYPE svg PUBLIC "-//W3C//DTD SVG 1.1//EN" "http://www.w3.org/Graphics/SVG/1.1/DTD/svg11.dtd"><svg xmlns="http://www.w3.org/2000/svg"><symbol id="icon-battery" viewBox="0 0 45 23">
    <path d="M40.09 8.09v8.4a2.8 2.8 0 0 1-2.82 2.77H14.13L30.31 3.31h6.96a2.8 2.8 0 0 1 2.82 2.77zM4.22 19.26a2.8 2.8 0 0 1-2.81-2.78V6.08a2.8 2.8 0 0 1 2.8-2.77h24.1L12.14 19.26zm37.9-12.49h-.64v-.69a4.2 4.2 0 0 0-4.21-4.16h-5.56l.96-.94-1-.98-1.95 1.92H4.22A4.2 4.2 0 0 0 0 6.08v10.4a4.2 4.2 0 0 0 4.22 4.17h6.52l-1.4 1.37 1 .98 2.39-2.35h24.54a4.2 4.2 0 0 0 4.21-4.17l.27.02.36-.01h.43c1.4 0 2.46-.9 2.46-2.09V8.86c0-1.2-1.06-2.08-2.46-2.08l-.43-.01z"/>
</symbol><symbol id="icon-facebook" viewBox="0 0 10 19">
    <title>
        facebook
    </title>
    <path d="M9.766.157v2.946H8.014c-.64 0-1.071.134-1.295.402-.223.268-.335.67-.335 1.205v2.11h3.27l-.435 3.303H6.384v8.471H2.97v-8.47H.123V6.82H2.97V4.387c0-1.384.387-2.457 1.161-3.22C4.904.404 5.934.023 7.222.023c1.093 0 1.941.045 2.544.134z" fill-rule="evenodd"/>
</symbol></svg>