<svg xmlns="http://www.w3.org/2000/svg" xmlns:xlink="http://www.w3.org/1999/xlink" width="119" height="21" viewBox="0 0 119 21"><defs><path id="523ua" d="M352.37 25.66l.66-1.32a4.78 4.78 0 0 0 2.58.74c1.03 0 1.54-.27 1.54-.81a.54.54 0 0 0-.39-.54 6.56 6.56 0 0 0-1.27-.3c-.5-.07-1-.17-1.48-.32a2.28 2.28 0 0 1-1-.63c-.3-.34-.45-.8-.42-1.25-.01-.67.32-1.3.88-1.69.7-.45 1.53-.67 2.37-.63.51 0 1.02.06 1.52.18.44.09.86.24 1.25.47l-.67 1.31a4.05 4.05 0 0 0-2.12-.55c-.4-.03-.8.05-1.15.23a.67.67 0 0 0-.4.6.6.6 0 0 0 .43.6c.42.15.86.26 1.3.32.5.07.98.18 1.46.32.37.12.7.32.97.6.29.34.43.77.41 1.2.01.68-.33 1.3-.9 1.67-.74.44-1.59.65-2.45.6-.59.01-1.18-.05-1.75-.2a4.43 4.43 0 0 1-1.37-.6zm-7.12 0l.66-1.32a4.82 4.82 0 0 0 2.58.74c1.03 0 1.55-.27 1.55-.81a.54.54 0 0 0-.4-.54 6.36 6.36 0 0 0-1.26-.3c-.5-.07-1-.17-1.49-.32a2.28 2.28 0 0 1-1-.63c-.3-.34-.45-.8-.42-1.25-.02-.67.31-1.31.88-1.69.7-.45 1.53-.67 2.36-.63.52 0 1.03.06 1.53.18.44.09.86.24 1.24.47l-.66 1.31a4.05 4.05 0 0 0-2.12-.55c-.4-.03-.8.05-1.15.23a.68.68 0 0 0-.4.6.6.6 0 0 0 .43.6c.42.15.86.26 1.3.32.5.07.98.18 1.46.32.37.12.7.32.97.6.28.34.43.77.4 1.2.02.68-.32 1.3-.9 1.67-.73.44-1.58.65-2.44.6-.59.01-1.18-.05-1.75-.2a4.36 4.36 0 0 1-1.37-.6zm-3.4-8.91c0-.28.12-.55.32-.75.22-.2.5-.3.8-.29.28 0 .56.1.78.28.2.18.33.44.32.72a1.06 1.06 0 0 1-1.1 1.08c-.3 0-.58-.1-.8-.3a.98.98 0 0 1-.31-.74zm.24 2.25h1.73v7.4h-1.73zm-1.19 0l-2.72 7.4h-1.67l-1.9-5.1-1.94 5.1H331L328.3 19h1.63l1.95 5.46 2.03-5.46h1.46l1.98 5.49 2.01-5.49zm-19.08 7.22a4.4 4.4 0 0 1-1.65-.84l.6-1.4a5.31 5.31 0 0 0 3.2 1.07c.56.03 1.12-.09 1.61-.35.33-.19.53-.54.53-.91a.9.9 0 0 0-.3-.7 2.11 2.11 0 0 0-.75-.41c-.3-.1-.72-.22-1.25-.35-.6-.14-1.21-.31-1.8-.52a2.93 2.93 0 0 1-1.17-.83 2.2 2.2 0 0 1-.5-1.52c0-.52.15-1.03.44-1.46a3 3 0 0 1 1.32-1.05c.68-.27 1.41-.4 2.15-.38.58 0 1.17.07 1.74.22.53.13 1.03.34 1.48.64l-.57 1.4a5.6 5.6 0 0 0-2.67-.77c-.55-.04-1.1.09-1.58.36-.33.21-.53.57-.52.96 0 .26.1.5.3.68.22.19.48.33.75.41.3.1.72.22 1.25.35.6.13 1.2.3 1.77.52a3 3 0 0 1 1.2.83c.35.41.53.95.5 1.5 0 .5-.15 1.01-.44 1.44-.33.47-.79.83-1.32 1.05-.69.27-1.42.4-2.16.38a7.4 7.4 0 0 1-2.16-.32zm-6.5-2.96h-5.8a2 2 0 0 0 .8 1.3c.46.33 1.02.5 1.6.47.74.03 1.47-.26 2-.8l.93 1.06c-.34.4-.77.72-1.27.9-1.25.47-2.64.4-3.85-.18-.6-.3-1.1-.77-1.43-1.35a3.81 3.81 0 0 1-.5-1.95c-.02-.69.15-1.36.48-1.95a3.5 3.5 0 0 1 1.36-1.35c.6-.33 1.28-.5 1.97-.49.67-.01 1.34.16 1.93.48a3.4 3.4 0 0 1 1.34 1.34c.32.62.49 1.31.47 2l-.03.52zm-5.82-1.15h4.21a2.02 2.02 0 0 0-2.09-1.8 2.11 2.11 0 0 0-1.42.49c-.38.34-.63.8-.7 1.3zm-4.2-2.38c.6.67.89 1.55.82 2.44v4.23h-1.73V22.4a2.16 2.16 0 0 0-.43-1.47c-.31-.33-.75-.51-1.2-.49a1.8 1.8 0 0 0-1.4.6 2.36 2.36 0 0 0-.53 1.64v3.76h-1.73V22.4a2.2 2.2 0 0 0-.43-1.46 1.55 1.55 0 0 0-1.23-.5 1.8 1.8 0 0 0-1.4.58 2.4 2.4 0 0 0-.52 1.64v3.76h-1.73V19h1.64v.95c.28-.34.64-.6 1.04-.77.44-.17.91-.26 1.39-.26.5 0 1 .1 1.47.31.42.2.77.53 1.01.93.32-.4.74-.71 1.2-.9.5-.23 1.05-.35 1.6-.34a3 3 0 0 1 2.16.81zM292.7 19l-3.46 8a3.7 3.7 0 0 1-1.2 1.7 2.8 2.8 0 0 1-1.67.49c-.37 0-.74-.06-1.1-.18-.32-.1-.63-.28-.88-.5l.7-1.27c.17.16.37.29.6.37.21.09.44.13.68.14.27 0 .54-.08.76-.24.24-.22.43-.49.54-.79l.12-.29-3.22-7.43h1.8l2.33 5.48 2.34-5.48zm-9 3.06v4.34h-1.62v-.92c-.23.33-.54.6-.91.75-.45.18-.93.26-1.42.25-.5.01-1-.09-1.45-.28a2.25 2.25 0 0 1-.96-.8 2.02 2.02 0 0 1-.32-1.12c-.02-.62.26-1.21.74-1.6.69-.45 1.51-.67 2.33-.6H282v-.11a1.5 1.5 0 0 0-.46-1.2 2 2 0 0 0-1.38-.42 3.85 3.85 0 0 0-2.22.74l-.68-1.26c.42-.32.9-.55 1.4-.68a6.06 6.06 0 0 1 1.73-.24c.89-.05 1.76.24 2.45.8a3 3 0 0 1 .87 2.35zm-1.72 2.03v-.86h-1.8c-1 0-1.5.33-1.5.98-.01.3.13.58.37.75.3.2.67.3 1.04.28.41.01.82-.1 1.18-.3.32-.19.58-.49.7-.85zm-6.53-5.77a3.68 3.68 0 0 1 0 3.68c-.34.53-.84.95-1.43 1.2-.7.3-1.44.44-2.19.42h-2.19v2.8h-1.8V16.7h3.98c.76-.02 1.5.12 2.2.41.59.25 1.09.67 1.43 1.2zm-1.92 3.26a1.98 1.98 0 0 0 0-2.85 2.79 2.79 0 0 0-1.8-.5h-2.1v3.85h2.1c.64.05 1.28-.12 1.81-.5z"/><path id="523ub" d="M253.22 13.84h-.04a8.24 8.24 0 0 0-2.73-1.44c-.3-.05-.6-.08-.92-.08-1.8 0-2.91.9-2.91 2.3 0 2.2 2.35 2.85 4.7 3.96.8.36 1.56.78 2.29 1.25a5.06 5.06 0 0 1 2.26 3.19 8.2 8.2 0 0 0-2.65-9.18z"/><path id="523ud" d="M243.45 24.4c2.21 1.46 4.75 2.55 5.69 2.55 1.8 0 3-.9 3-2.45 0-4.08-9.43-3.12-9.43-9.89-.02-.9.19-1.8.6-2.61h-.98a2.34 2.34 0 0 0-2.33 2.33v5.81c0 2.65 1.88 3.24 3.45 4.27z"/><path id="523uf" d="M244.94 29.51a17.92 17.92 0 0 1-4.55-2.83l-.39-.35v4a2.18 2.18 0 0 0 2.19 2.2h1.16a2.72 2.72 0 0 0 2.71-2.63c-.38-.11-.75-.24-1.12-.39z"/><linearGradient id="523uc" x1="255.18" x2="247.34" y1="17.23" y2="18.42" gradientUnits="userSpaceOnUse"><stop offset="0" stop-color="#f15f4b"/><stop offset="1" stop-color="#874299"/></linearGradient><linearGradient id="523ue" x1="240.31" x2="251.33" y1="20.4" y2="18.55" gradientUnits="userSpaceOnUse"><stop offset="0" stop-color="#1e91d0"/><stop offset=".48" stop-color="#5853a3"/><stop offset="1" stop-color="#a44298"/></linearGradient><linearGradient id="523ug" x1="245.11" x2="240.55" y1="25.83" y2="31.76" gradientUnits="userSpaceOnUse"><stop offset="0" stop-color="#5853a3"/><stop offset="1" stop-color="#38c6f4"/></linearGradient></defs><g><g transform="translate(-240 -12)"><g><use fill="#231f20" xlink:href="#523ua"/></g><g><g><use fill="url(#523uc)" xlink:href="#523ub"/></g><g><use fill="url(#523ue)" xlink:href="#523ud"/></g><g><use fill="url(#523ug)" xlink:href="#523uf"/></g></g></g></g></svg>