<svg xmlns="http://www.w3.org/2000/svg" xmlns:xlink="http://www.w3.org/1999/xlink" width="72" height="72" viewBox="0 0 72 72"><defs><path id="mws7a" d="M683 2508a36 36 0 1 1 72 0 36 36 0 0 1-72 0z"/><path id="mws7c" d="M735.05 2504.07c.01 1.78-.28 3.54-.85 5.22a9.42 9.42 0 0 0-4.22-5.95 33.54 33.54 0 0 0-4.27-2.33c-4.37-2.07-8.76-3.29-8.76-7.4 0-2.62 2.11-4.28 5.43-4.28.58 0 1.15.04 1.7.14 1.86.57 3.6 1.48 5.11 2.68l.07.07a15.34 15.34 0 0 1 5.79 11.85zm-30.45-.08v-10.84a4.34 4.34 0 0 1 4.34-4.35h1.92a10.26 10.26 0 0 0-1.16 4.87c0 12.63 17.6 10.85 17.6 18.47 0 2.88-2.32 4.56-5.65 4.56-1.75 0-6.47-2.04-10.6-4.74-2.91-1.93-6.4-3.03-6.45-7.97zm11.3 18.24a5.06 5.06 0 0 1-5.06 4.89h-2.13a4.07 4.07 0 0 1-4.06-4.08v-7.48l.7.66a33.61 33.61 0 0 0 8.49 5.26c.68.29 1.37.54 2.05.75z"/><linearGradient id="mws7b" x1="684.98" x2="750.13" y1="2512.45" y2="2503.57" gradientUnits="userSpaceOnUse"><stop offset="0" stop-color="#1e91d0"/><stop offset=".48" stop-color="#5853a3"/><stop offset="1" stop-color="#a44298"/></linearGradient></defs><g><g transform="translate(-683 -2472)"><g><g><use fill="url(#mws7b)" xlink:href="#mws7a"/></g><g><use fill="#fff" xlink:href="#mws7c"/></g></g></g></g></svg>