<svg xmlns="http://www.w3.org/2000/svg" xmlns:xlink="http://www.w3.org/1999/xlink" width="17" height="21" viewBox="0 0 17 21"><defs><path id="sv79a" d="M253.22 13.838h-.037a8.245 8.245 0 0 0-2.735-1.44 5.743 5.743 0 0 0-.913-.078c-1.803 0-2.915.894-2.915 2.292 0 2.208 2.35 2.862 4.7 3.966.791.362 1.557.78 2.29 1.248a5.058 5.058 0 0 1 2.26 3.192 8.56 8.56 0 0 0 .456-2.802 8.19 8.19 0 0 0-3.107-6.378z"/><path id="sv79c" d="M243.45 24.408c2.212 1.452 4.748 2.538 5.685 2.538 1.803 0 3.005-.894 3.005-2.442 0-4.08-9.43-3.126-9.43-9.894a5.44 5.44 0 0 1 .602-2.61h-.98A2.336 2.336 0 0 0 240 14.334v5.808c0 2.646 1.875 3.234 3.45 4.266z"/><path id="sv79e" d="M244.94 29.51a17.921 17.921 0 0 1-4.55-2.826l-.39-.354v4.002a2.182 2.182 0 0 0 2.188 2.19h1.166a2.72 2.72 0 0 0 2.71-2.622 11.12 11.12 0 0 1-1.124-.39z"/><linearGradient id="sv79b" x1="255.18" x2="247.34" y1="17.23" y2="18.42" gradientUnits="userSpaceOnUse"><stop offset="0" stop-color="#f15f4b"/><stop offset="1" stop-color="#874299"/></linearGradient><linearGradient id="sv79d" x1="240.31" x2="251.33" y1="20.4" y2="18.55" gradientUnits="userSpaceOnUse"><stop offset="0" stop-color="#1e91d0"/><stop offset=".48" stop-color="#5853a3"/><stop offset="1" stop-color="#a44298"/></linearGradient><linearGradient id="sv79f" x1="245.11" x2="240.55" y1="25.83" y2="31.76" gradientUnits="userSpaceOnUse"><stop offset="0" stop-color="#5853a3"/><stop offset="1" stop-color="#38c6f4"/></linearGradient></defs><g><g transform="translate(-240 -12)"><g><use fill="url(#sv79b)" xlink:href="#sv79a"/></g><g><use fill="url(#sv79d)" xlink:href="#sv79c"/></g><g><use fill="url(#sv79f)" xlink:href="#sv79e"/></g></g></g></svg>